<mxfile host="65bd71144e">
    <diagram id="_l8nmEJQ_5bO9ryYvf4b" name="Page-1">
        <mxGraphModel dx="1214" dy="670" grid="1" gridSize="10" guides="1" tooltips="1" connect="1" arrows="1" fold="1" page="1" pageScale="1" pageWidth="850" pageHeight="1100" math="0" shadow="1">
            <root>
                <mxCell id="0"/>
                <mxCell id="1" parent="0"/>
                <mxCell id="node1" value="&lt;font style='font-size: 14.0px;' face='Times New Roman,serif' color='#000000'&gt;app_settings&lt;/font&gt;" style="ellipse;verticalAlign=middle;html=1;rounded=0;labelBackgroundColor=none;strokeColor=black;fillColor=none;strokeWidth=1;dashed=0;" parent="1" vertex="1">
                    <mxGeometry x="238.41000000000003" y="4" width="109.38" height="36" as="geometry"/>
                </mxCell>
                <mxCell id="node2" value="&lt;font style='font-size: 14.0px;' face='Times New Roman,serif' color='#000000'&gt;port&lt;/font&gt;" style="ellipse;verticalAlign=middle;html=1;rounded=0;labelBackgroundColor=none;strokeColor=black;fillColor=none;strokeWidth=1;dashed=0;" parent="1" vertex="1">
                    <mxGeometry x="266.1" y="76" width="54" height="36" as="geometry"/>
                </mxCell>
                <mxCell id="node3" value="&lt;font style='font-size: 14.0px;' face='Times New Roman,serif' color='#000000'&gt;name&lt;/font&gt;" style="ellipse;verticalAlign=middle;html=1;rounded=0;labelBackgroundColor=none;strokeColor=black;fillColor=none;strokeWidth=1;dashed=0;" parent="1" vertex="1">
                    <mxGeometry x="338.51000000000005" y="76" width="61.18" height="36" as="geometry"/>
                </mxCell>
                <mxCell id="node4" value="&lt;font style='font-size: 14.0px;' face='Times New Roman,serif' color='#000000'&gt;middleware&lt;/font&gt;" style="ellipse;verticalAlign=middle;html=1;rounded=0;labelBackgroundColor=none;strokeColor=black;fillColor=none;strokeWidth=1;dashed=0;" parent="1" vertex="1">
                    <mxGeometry x="142.31" y="76" width="105.58" height="36" as="geometry"/>
                </mxCell>
                <mxCell id="node5" value="&lt;font style='font-size: 14.0px;' face='Times New Roman,serif' color='#000000'&gt;origins&lt;/font&gt;" style="ellipse;verticalAlign=middle;html=1;rounded=0;labelBackgroundColor=none;strokeColor=black;fillColor=none;strokeWidth=1;dashed=0;" parent="1" vertex="1">
                    <mxGeometry x="3.9100000000000037" y="148" width="70.38" height="36" as="geometry"/>
                </mxCell>
                <mxCell id="node6" value="&lt;font style='font-size: 14.0px;' face='Times New Roman,serif' color='#000000'&gt;credentials&lt;/font&gt;" style="ellipse;verticalAlign=middle;html=1;rounded=0;labelBackgroundColor=none;strokeColor=black;fillColor=none;strokeWidth=1;dashed=0;" parent="1" vertex="1">
                    <mxGeometry x="92.10999999999999" y="148" width="97.98" height="36" as="geometry"/>
                </mxCell>
                <mxCell id="node7" value="&lt;font style='font-size: 14.0px;' face='Times New Roman,serif' color='#000000'&gt;methods&lt;/font&gt;" style="ellipse;verticalAlign=middle;html=1;rounded=0;labelBackgroundColor=none;strokeColor=black;fillColor=none;strokeWidth=1;dashed=0;" parent="1" vertex="1">
                    <mxGeometry x="208.1" y="148" width="82" height="36" as="geometry"/>
                </mxCell>
                <mxCell id="node8" value="&lt;font style='font-size: 14.0px;' face='Times New Roman,serif' color='#000000'&gt;headers&lt;/font&gt;" style="ellipse;verticalAlign=middle;html=1;rounded=0;labelBackgroundColor=none;strokeColor=black;fillColor=none;strokeWidth=1;dashed=0;" parent="1" vertex="1">
                    <mxGeometry x="308.21000000000004" y="148" width="75.78" height="36" as="geometry"/>
                </mxCell>
                <mxCell id="node12" value="&lt;font style='font-size: 14.0px;' face='Times New Roman,serif' color='#000000'&gt;redis&lt;/font&gt;" style="ellipse;verticalAlign=middle;html=1;rounded=0;labelBackgroundColor=none;strokeColor=black;fillColor=none;strokeWidth=1;dashed=0;" parent="1" vertex="1">
                    <mxGeometry x="435.1" y="4" width="56" height="36" as="geometry"/>
                </mxCell>
                <mxCell id="node13" value="&lt;font style='font-size: 14.0px;' face='Times New Roman,serif' color='#000000'&gt;host&lt;/font&gt;" style="ellipse;verticalAlign=middle;html=1;rounded=0;labelBackgroundColor=none;strokeColor=black;fillColor=none;strokeWidth=1;dashed=0;" parent="1" vertex="1">
                    <mxGeometry x="490.1" y="76" width="54" height="36" as="geometry"/>
                </mxCell>
                <mxCell id="node14" value="&lt;font style='font-size: 14.0px;' face='Times New Roman,serif' color='#000000'&gt;password&lt;/font&gt;" style="ellipse;verticalAlign=middle;html=1;rounded=0;labelBackgroundColor=none;strokeColor=black;fillColor=none;strokeWidth=1;dashed=0;" parent="1" vertex="1">
                    <mxGeometry x="561.71" y="76" width="88.78" height="36" as="geometry"/>
                </mxCell>
                <mxCell id="node15" value="&lt;font style='font-size: 14.0px;' face='Times New Roman,serif' color='#000000'&gt;ssl&lt;/font&gt;" style="ellipse;verticalAlign=middle;html=1;rounded=0;labelBackgroundColor=none;strokeColor=black;fillColor=none;strokeWidth=1;dashed=0;" parent="1" vertex="1">
                    <mxGeometry x="418.1" y="76" width="54" height="36" as="geometry"/>
                </mxCell>
                <mxCell id="node16" value="&lt;font style='font-size: 14.0px;' face='Times New Roman,serif' color='#000000'&gt;database&lt;/font&gt;" style="ellipse;verticalAlign=middle;html=1;rounded=0;labelBackgroundColor=none;strokeColor=black;fillColor=none;strokeWidth=1;dashed=0;" parent="1" vertex="1">
                    <mxGeometry x="528.1" y="4" width="82" height="36" as="geometry"/>
                </mxCell>
                <mxCell id="node17" value="&lt;font style='font-size: 14.0px;' face='Times New Roman,serif' color='#000000'&gt;user&lt;/font&gt;" style="ellipse;verticalAlign=middle;html=1;rounded=0;labelBackgroundColor=none;strokeColor=black;fillColor=none;strokeWidth=1;dashed=0;" parent="1" vertex="1">
                    <mxGeometry x="668.1" y="76" width="54" height="36" as="geometry"/>
                </mxCell>
                <mxCell id="node18" value="&lt;font style='font-size: 14.0px;' face='Times New Roman,serif' color='#000000'&gt;ssl_verify_cert&lt;/font&gt;" style="ellipse;verticalAlign=middle;html=1;rounded=0;labelBackgroundColor=none;strokeColor=black;fillColor=none;strokeWidth=1;dashed=0;" parent="1" vertex="1">
                    <mxGeometry x="710" y="30" width="126.18" height="36" as="geometry"/>
                </mxCell>
                <mxCell id="node19" value="&lt;font style='font-size: 14.0px;' face='Times New Roman,serif' color='#000000'&gt;system&lt;/font&gt;" style="ellipse;verticalAlign=middle;html=1;rounded=0;labelBackgroundColor=none;strokeColor=black;fillColor=none;strokeWidth=1;dashed=0;" parent="1" vertex="1">
                    <mxGeometry x="442.80000000000007" y="170" width="72" height="36" as="geometry"/>
                </mxCell>
                <mxCell id="22" style="edgeStyle=none;curved=1;rounded=0;orthogonalLoop=1;jettySize=auto;html=1;exitX=0.5;exitY=1;exitDx=0;exitDy=0;entryX=0.5;entryY=0;entryDx=0;entryDy=0;strokeWidth=1;endArrow=block;endFill=1;startSize=6;endSize=6;sourcePerimeterSpacing=8;targetPerimeterSpacing=8;" parent="1" source="node20" target="14" edge="1">
                    <mxGeometry relative="1" as="geometry"/>
                </mxCell>
                <mxCell id="node20" value="&lt;font style=&quot;font-size: 14.0px;&quot; face=&quot;Times New Roman,serif&quot; color=&quot;#000000&quot;&gt;recommends_available&lt;/font&gt;" style="ellipse;verticalAlign=middle;html=1;rounded=0;labelBackgroundColor=none;strokeColor=black;fillColor=none;strokeWidth=1;dashed=0;" parent="1" vertex="1">
                    <mxGeometry x="425.3" y="250" width="164.7" height="36" as="geometry"/>
                </mxCell>
                <mxCell id="3" style="edgeStyle=none;curved=1;rounded=0;orthogonalLoop=1;jettySize=auto;html=1;exitX=1;exitY=0.5;exitDx=0;exitDy=0;entryX=0;entryY=0.5;entryDx=0;entryDy=0;endArrow=block;startSize=6;endSize=6;sourcePerimeterSpacing=8;targetPerimeterSpacing=8;endFill=1;strokeWidth=1;" parent="1" source="node21" target="2" edge="1">
                    <mxGeometry relative="1" as="geometry"/>
                </mxCell>
                <mxCell id="18" style="edgeStyle=none;curved=1;rounded=0;orthogonalLoop=1;jettySize=auto;html=1;exitX=0.5;exitY=1;exitDx=0;exitDy=0;entryX=0.541;entryY=0.031;entryDx=0;entryDy=0;entryPerimeter=0;strokeWidth=1;endArrow=block;endFill=1;startSize=6;endSize=6;sourcePerimeterSpacing=8;targetPerimeterSpacing=8;" parent="1" source="node21" target="16" edge="1">
                    <mxGeometry relative="1" as="geometry"/>
                </mxCell>
                <mxCell id="node21" value="&lt;font style='font-size: 14.0px;' face='Times New Roman,serif' color='#000000'&gt;search_hint&lt;/font&gt;" style="ellipse;verticalAlign=middle;html=1;rounded=0;labelBackgroundColor=none;strokeColor=black;fillColor=none;strokeWidth=1;dashed=0;" parent="1" vertex="1">
                    <mxGeometry x="186.11000000000004" y="348" width="103" height="36" as="geometry"/>
                </mxCell>
                <mxCell id="node22" value="&lt;font style='font-size: 14.0px;' face='Times New Roman,serif' color='#000000'&gt;key_redis&lt;/font&gt;" style="ellipse;verticalAlign=middle;html=1;rounded=0;labelBackgroundColor=none;strokeColor=black;fillColor=none;strokeWidth=1;dashed=0;" parent="1" vertex="1">
                    <mxGeometry x="20" y="380" width="90" height="36" as="geometry"/>
                </mxCell>
                <mxCell id="node23" value="&lt;font style='font-size: 14.0px;' face='Times New Roman,serif' color='#000000'&gt;name_table_target&lt;/font&gt;" style="ellipse;verticalAlign=middle;html=1;rounded=0;labelBackgroundColor=none;strokeColor=black;fillColor=none;strokeWidth=1;dashed=0;" parent="1" vertex="1">
                    <mxGeometry x="31.930000000000007" y="434" width="152.18" height="36" as="geometry"/>
                </mxCell>
                <mxCell id="node24" value="&lt;font style='font-size: 14.0px;' face='Times New Roman,serif' color='#000000'&gt;columns_target&lt;/font&gt;" style="ellipse;verticalAlign=middle;html=1;rounded=0;labelBackgroundColor=none;strokeColor=black;fillColor=none;strokeWidth=1;dashed=0;" parent="1" vertex="1">
                    <mxGeometry x="293" y="416" width="131.58" height="36" as="geometry"/>
                </mxCell>
                <mxCell id="node25" value="&lt;font style='font-size: 14.0px;' face='Times New Roman,serif' color='#000000'&gt;title&lt;/font&gt;" style="ellipse;verticalAlign=middle;html=1;rounded=0;labelBackgroundColor=none;strokeColor=black;fillColor=none;strokeWidth=1;dashed=0;" parent="1" vertex="1">
                    <mxGeometry x="329.9899999999999" y="480" width="54" height="36" as="geometry"/>
                </mxCell>
                <mxCell id="edge1" style="html=1;endArrow=block;dashed=0;endFill=1;startArrow=none;startFill=0;fillColor=black;strokeColor=black;strokeWidth=1;rounded=0;exitX=0.5000;exitY=1.0000;entryX=0.5000;entryY=0.0000;" parent="1" source="node1" target="node2" edge="1">
                    <mxGeometry relative="1" as="geometry">
                        <mxPoint x="293.1" y="40.30000000000001" as="sourcePoint"/>
                        <mxPoint x="293.1" y="65.88999999999999" as="targetPoint"/>
                    </mxGeometry>
                </mxCell>
                <mxCell id="edge2" style="html=1;endArrow=block;dashed=0;endFill=1;startArrow=none;startFill=0;fillColor=black;strokeColor=black;strokeWidth=1;rounded=0;exitX=0.6611;exitY=1.0000;entryX=0.1213;entryY=0.0000;" parent="1" source="node1" target="node3" edge="1">
                    <mxGeometry relative="1" as="geometry">
                        <mxPoint x="310.72" y="39.24000000000001" as="sourcePoint"/>
                        <mxPoint x="345.93" y="71.66000000000003" as="targetPoint"/>
                    </mxGeometry>
                </mxCell>
                <mxCell id="edge3" style="html=1;endArrow=block;dashed=0;endFill=1;startArrow=none;startFill=0;fillColor=black;strokeColor=black;strokeWidth=1;rounded=0;exitX=0.3012;exitY=1.0000;entryX=0.7850;entryY=0.0000;" parent="1" source="node1" target="node4" edge="1">
                    <mxGeometry relative="1" as="geometry">
                        <mxPoint x="271.35" y="38.54000000000002" as="sourcePoint"/>
                        <mxPoint x="225.19" y="71.5" as="targetPoint"/>
                    </mxGeometry>
                </mxCell>
                <mxCell id="edge4" style="html=1;endArrow=block;dashed=0;endFill=1;startArrow=none;startFill=0;fillColor=black;strokeColor=black;strokeWidth=1;rounded=0;exitX=0.2081;exitY=1.0000;entryX=1.0000;entryY=0.0394;" parent="1" source="node4" target="node5" edge="1">
                    <mxGeometry relative="1" as="geometry">
                        <mxPoint x="164.28" y="108.83000000000001" as="sourcePoint"/>
                        <mxPoint x="73.82" y="149.42" as="targetPoint"/>
                    </mxGeometry>
                </mxCell>
                <mxCell id="edge5" style="html=1;endArrow=block;dashed=0;endFill=1;startArrow=none;startFill=0;fillColor=black;strokeColor=black;strokeWidth=1;rounded=0;exitX=0.3788;exitY=1.0000;entryX=0.6928;entryY=0.0000;" parent="1" source="node4" target="node6" edge="1">
                    <mxGeometry relative="1" as="geometry">
                        <mxPoint x="182.3" y="111.59" as="sourcePoint"/>
                        <mxPoint x="159.99" y="140.5" as="targetPoint"/>
                    </mxGeometry>
                </mxCell>
                <mxCell id="edge6" style="html=1;endArrow=block;dashed=0;endFill=1;startArrow=none;startFill=0;fillColor=black;strokeColor=black;strokeWidth=1;rounded=0;exitX=0.6211;exitY=1.0000;entryX=0.2695;entryY=0.0000;" parent="1" source="node4" target="node7" edge="1">
                    <mxGeometry relative="1" as="geometry">
                        <mxPoint x="207.89" y="111.59" as="sourcePoint"/>
                        <mxPoint x="230.2" y="140.5" as="targetPoint"/>
                    </mxGeometry>
                </mxCell>
                <mxCell id="edge7" style="html=1;endArrow=block;dashed=0;endFill=1;startArrow=none;startFill=0;fillColor=black;strokeColor=black;strokeWidth=1;rounded=0;exitX=0.7859;exitY=1.0000;entryX=0.0350;entryY=0.0000;" parent="1" source="node4" target="node8" edge="1">
                    <mxGeometry relative="1" as="geometry">
                        <mxPoint x="225.29" y="109" as="sourcePoint"/>
                        <mxPoint x="310.86" y="148.67" as="targetPoint"/>
                    </mxGeometry>
                </mxCell>
                <mxCell id="edge11" style="html=1;endArrow=block;dashed=0;endFill=1;startArrow=none;startFill=0;fillColor=black;strokeColor=black;strokeWidth=1;rounded=0;exitX=0.0000;exitY=0.7756;entryX=1.0000;entryY=0.0678;" parent="1" source="node12" target="node2" edge="1">
                    <mxGeometry relative="1" as="geometry">
                        <mxPoint x="439.19" y="31.920000000000016" as="sourcePoint"/>
                        <mxPoint x="323.58" y="78.44" as="targetPoint"/>
                        <Array as="points">
                            <mxPoint x="329.1" y="76"/>
                        </Array>
                    </mxGeometry>
                </mxCell>
                <mxCell id="edge12" style="html=1;endArrow=block;dashed=0;endFill=1;startArrow=none;startFill=0;fillColor=black;strokeColor=black;strokeWidth=1;rounded=0;exitX=0.7139;exitY=1.0000;entryX=0.1626;entryY=0.0000;" parent="1" source="node12" target="node13" edge="1">
                    <mxGeometry relative="1" as="geometry">
                        <mxPoint x="475.08" y="38.54000000000002" as="sourcePoint"/>
                        <mxPoint x="498.88" y="69.38999999999999" as="targetPoint"/>
                    </mxGeometry>
                </mxCell>
                <mxCell id="edge13" style="html=1;endArrow=block;dashed=0;endFill=1;startArrow=none;startFill=0;fillColor=black;strokeColor=black;strokeWidth=1;rounded=0;exitX=1.0000;exitY=0.8231;entryX=0.0928;entryY=0.0000;" parent="1" source="node12" target="node14" edge="1">
                    <mxGeometry relative="1" as="geometry">
                        <mxPoint x="484.82" y="33.629999999999995" as="sourcePoint"/>
                        <mxPoint x="569.95" y="75.31" as="targetPoint"/>
                    </mxGeometry>
                </mxCell>
                <mxCell id="edge14" style="html=1;endArrow=block;dashed=0;endFill=1;startArrow=none;startFill=0;fillColor=black;strokeColor=black;strokeWidth=1;rounded=0;exitX=0.4221;exitY=1.0000;entryX=0.6270;entryY=0.0000;" parent="1" source="node12" target="node15" edge="1">
                    <mxGeometry relative="1" as="geometry">
                        <mxPoint x="458.74" y="39.94999999999999" as="sourcePoint"/>
                        <mxPoint x="451.96" y="66.31" as="targetPoint"/>
                    </mxGeometry>
                </mxCell>
                <mxCell id="edge15" style="html=1;endArrow=block;dashed=0;endFill=1;startArrow=none;startFill=0;fillColor=black;strokeColor=black;strokeWidth=1;curved=1;exitX=0.0000;exitY=0.7719;entryX=1.0000;entryY=0.0592;" parent="1" source="node16" target="node2" edge="1">
                    <mxGeometry relative="1" as="geometry">
                        <mxPoint x="534.4" y="31.79000000000002" as="sourcePoint"/>
                        <mxPoint x="323.28" y="78.13" as="targetPoint"/>
                        <Array as="points">
                            <mxPoint x="469.88145471840176" y="46.90014062227726"/>
                            <mxPoint x="373.3335193056196" y="61.12729788324839"/>
                            <mxPoint x="329.1" y="76"/>
                        </Array>
                    </mxGeometry>
                </mxCell>
                <mxCell id="edge16" style="html=1;endArrow=block;dashed=0;endFill=1;startArrow=none;startFill=0;fillColor=black;strokeColor=black;strokeWidth=1;rounded=0;exitX=0.1005;exitY=1.0000;entryX=1.0000;entryY=0.0728;" parent="1" source="node16" target="node3" edge="1">
                    <mxGeometry relative="1" as="geometry">
                        <mxPoint x="536.34" y="32.99000000000001" as="sourcePoint"/>
                        <mxPoint x="402.36" y="78.62" as="targetPoint"/>
                        <Array as="points">
                            <mxPoint x="409.1" y="76"/>
                        </Array>
                    </mxGeometry>
                </mxCell>
                <mxCell id="edge17" style="html=1;endArrow=block;dashed=0;endFill=1;startArrow=none;startFill=0;fillColor=black;strokeColor=black;strokeWidth=1;rounded=0;exitX=0.3529;exitY=1.0000;entryX=0.8285;entryY=0.0000;" parent="1" source="node16" target="node13" edge="1">
                    <mxGeometry relative="1" as="geometry">
                        <mxPoint x="557.04" y="39.24000000000001" as="sourcePoint"/>
                        <mxPoint x="534.84" y="69.11000000000001" as="targetPoint"/>
                    </mxGeometry>
                </mxCell>
                <mxCell id="edge18" style="html=1;endArrow=block;dashed=0;endFill=1;startArrow=none;startFill=0;fillColor=black;strokeColor=black;strokeWidth=1;rounded=0;exitX=0.6070;exitY=1.0000;entryX=0.3448;entryY=0.0000;" parent="1" source="node16" target="node14" edge="1">
                    <mxGeometry relative="1" as="geometry">
                        <mxPoint x="577.87" y="39.589999999999975" as="sourcePoint"/>
                        <mxPoint x="592.32" y="66.93" as="targetPoint"/>
                    </mxGeometry>
                </mxCell>
                <mxCell id="edge19" style="html=1;endArrow=block;dashed=0;endFill=1;startArrow=none;startFill=0;fillColor=black;strokeColor=black;strokeWidth=1;rounded=0;exitX=0.7999;exitY=1.0000;entryX=0.0000;entryY=0.0211;" parent="1" source="node16" target="node17" edge="1">
                    <mxGeometry relative="1" as="geometry">
                        <mxPoint x="593.69" y="36.660000000000025" as="sourcePoint"/>
                        <mxPoint x="665.87" y="76.75999999999999" as="targetPoint"/>
                    </mxGeometry>
                </mxCell>
                <mxCell id="edge20" style="html=1;endArrow=block;dashed=0;endFill=1;startArrow=none;startFill=0;fillColor=black;strokeColor=black;strokeWidth=1;rounded=0;exitX=0.9028;exitY=1.0000;entryX=0.0907;entryY=0.0000;" parent="1" source="node16" target="node18" edge="1">
                    <mxGeometry relative="1" as="geometry">
                        <mxPoint x="602.13" y="32.879999999999995" as="sourcePoint"/>
                        <mxPoint x="751.45" y="77.55000000000001" as="targetPoint"/>
                    </mxGeometry>
                </mxCell>
                <mxCell id="edge21" style="html=1;endArrow=block;dashed=0;endFill=1;startArrow=none;startFill=0;fillColor=black;strokeColor=black;strokeWidth=1;rounded=0;exitX=0.5000;exitY=1.0000;entryX=0.5000;entryY=0.0000;" parent="1" source="node19" target="node20" edge="1">
                    <mxGeometry relative="1" as="geometry">
                        <mxPoint x="237.61000000000004" y="236.3" as="sourcePoint"/>
                        <mxPoint x="237.61000000000004" y="261.89" as="targetPoint"/>
                    </mxGeometry>
                </mxCell>
                <mxCell id="edge22" style="html=1;endArrow=block;dashed=0;endFill=1;startArrow=none;startFill=0;fillColor=black;strokeColor=black;strokeWidth=1;rounded=0;exitX=0.5000;exitY=1.0000;entryX=0.5000;entryY=0.0000;" parent="1" source="node20" target="node21" edge="1">
                    <mxGeometry relative="1" as="geometry">
                        <mxPoint x="237.61000000000004" y="308.3" as="sourcePoint"/>
                        <mxPoint x="237.61000000000004" y="333.89" as="targetPoint"/>
                    </mxGeometry>
                </mxCell>
                <mxCell id="edge23" style="html=1;endArrow=block;dashed=0;endFill=1;startArrow=none;startFill=0;fillColor=black;strokeColor=black;strokeWidth=1;rounded=0;exitX=0.2269;exitY=1.0000;entryX=0.9039;entryY=0.0000;" parent="1" source="node21" target="node22" edge="1">
                    <mxGeometry relative="1" as="geometry">
                        <mxPoint x="909.49" y="141.17" as="sourcePoint"/>
                        <mxPoint x="834.97" y="178.69" as="targetPoint"/>
                    </mxGeometry>
                </mxCell>
                <mxCell id="edge24" style="html=1;endArrow=block;dashed=0;endFill=1;startArrow=none;startFill=0;fillColor=black;strokeColor=black;strokeWidth=1;rounded=0;exitX=0.5000;exitY=1.0000;entryX=0.5000;entryY=0.0000;" parent="1" source="node21" target="node23" edge="1">
                    <mxGeometry relative="1" as="geometry">
                        <mxPoint x="237.61000000000004" y="380.3" as="sourcePoint"/>
                        <mxPoint x="237.61000000000004" y="405.89" as="targetPoint"/>
                    </mxGeometry>
                </mxCell>
                <mxCell id="edge25" style="html=1;endArrow=block;dashed=0;endFill=1;startArrow=none;startFill=0;fillColor=black;strokeColor=black;strokeWidth=1;rounded=0;exitX=0.7995;exitY=1.0000;entryX=0;entryY=0.5;entryDx=0;entryDy=0;" parent="1" source="node21" target="node24" edge="1">
                    <mxGeometry relative="1" as="geometry">
                        <mxPoint x="268.46000000000004" y="376.5" as="sourcePoint"/>
                        <mxPoint x="361.4991045741988" y="418.95379357258275" as="targetPoint"/>
                    </mxGeometry>
                </mxCell>
                <mxCell id="edge26" style="html=1;endArrow=block;dashed=0;endFill=1;startArrow=none;startFill=0;fillColor=black;strokeColor=black;strokeWidth=1;rounded=0;exitX=0.428;exitY=1.056;entryX=0.5000;entryY=0.0000;exitDx=0;exitDy=0;exitPerimeter=0;" parent="1" source="node24" target="node25" edge="1">
                    <mxGeometry relative="1" as="geometry">
                        <mxPoint x="397.6099999999999" y="452" as="sourcePoint"/>
                        <mxPoint x="397.6099999999999" y="477.89" as="targetPoint"/>
                    </mxGeometry>
                </mxCell>
                <mxCell id="2" value="&lt;font style=&quot;font-size: 14.0px;&quot; face=&quot;Times New Roman,serif&quot; color=&quot;#000000&quot;&gt;column_key&lt;/font&gt;" style="ellipse;verticalAlign=middle;html=1;rounded=0;labelBackgroundColor=none;strokeColor=black;fillColor=none;strokeWidth=1;dashed=0;" parent="1" vertex="1">
                    <mxGeometry x="329.99" y="360" width="131.58" height="36" as="geometry"/>
                </mxCell>
                <mxCell id="6" value="&lt;font style='font-size: 14.0px;' face='Times New Roman,serif' color='#000000'&gt;name_table_target&lt;/font&gt;" style="ellipse;verticalAlign=middle;html=1;rounded=0;labelBackgroundColor=none;strokeColor=black;fillColor=none;strokeWidth=1;dashed=0;" parent="1" vertex="1">
                    <mxGeometry x="480.0000000000001" y="474" width="152.18" height="36" as="geometry"/>
                </mxCell>
                <mxCell id="10" style="html=1;endArrow=block;dashed=0;endFill=1;startArrow=none;startFill=0;fillColor=black;strokeColor=black;strokeWidth=1;rounded=0;exitX=0.5000;exitY=1.0000;entryX=1;entryY=0;entryDx=0;entryDy=0;" parent="1" source="14" target="6" edge="1">
                    <mxGeometry relative="1" as="geometry">
                        <mxPoint x="684.9000000000001" y="430.29999999999995" as="sourcePoint"/>
                        <mxPoint x="509.3899999999999" y="490" as="targetPoint"/>
                    </mxGeometry>
                </mxCell>
                <mxCell id="24" style="edgeStyle=none;curved=1;rounded=0;orthogonalLoop=1;jettySize=auto;html=1;exitX=0.5;exitY=1;exitDx=0;exitDy=0;entryX=0.5;entryY=0;entryDx=0;entryDy=0;strokeWidth=1;endArrow=block;endFill=1;startSize=6;endSize=6;sourcePerimeterSpacing=8;targetPerimeterSpacing=8;" parent="1" source="14" target="21" edge="1">
                    <mxGeometry relative="1" as="geometry"/>
                </mxCell>
                <mxCell id="14" value="&lt;font style=&quot;font-size: 14.0px;&quot; face=&quot;Times New Roman,serif&quot; color=&quot;#000000&quot;&gt;recommend_like_category&lt;/font&gt;" style="ellipse;verticalAlign=middle;html=1;rounded=0;labelBackgroundColor=none;strokeColor=black;fillColor=none;strokeWidth=1;dashed=0;" parent="1" vertex="1">
                    <mxGeometry x="564.99" y="394" width="171.41" height="36" as="geometry"/>
                </mxCell>
                <mxCell id="16" value="&lt;font style=&quot;font-size: 14.0px;&quot; face=&quot;Times New Roman,serif&quot; color=&quot;#000000&quot;&gt;score_cutoff&lt;/font&gt;" style="ellipse;verticalAlign=middle;html=1;rounded=0;labelBackgroundColor=none;strokeColor=black;fillColor=none;strokeWidth=1;dashed=0;" parent="1" vertex="1">
                    <mxGeometry x="208.1" y="520" width="111.9" height="36" as="geometry"/>
                </mxCell>
                <mxCell id="21" value="&lt;font style=&quot;font-size: 14.0px;&quot; face=&quot;Times New Roman,serif&quot; color=&quot;#000000&quot;&gt;category_column&lt;/font&gt;" style="ellipse;verticalAlign=middle;html=1;rounded=0;labelBackgroundColor=none;strokeColor=black;fillColor=none;strokeWidth=1;dashed=0;" parent="1" vertex="1">
                    <mxGeometry x="714.7299999999998" y="474" width="115.32" height="36" as="geometry"/>
                </mxCell>
            </root>
        </mxGraphModel>
    </diagram>
</mxfile>